M48
;DRILL file {KiCad 4.0.7} date Thursday, March 08, 2018 'PMt' 03:01:43 PM
;FORMAT={-:-/ absolute / inch / decimal}
FMAT,2
INCH,TZ
T1C0.012
T2C0.014
T3C0.016
T4C0.031
%
G90
G05
M72
T1
X4.5368Y-3.267
X4.5368Y-3.3103
X4.5368Y-3.3536
X4.5801Y-3.267
X4.5801Y-3.3103
X4.5801Y-3.3536
X4.6234Y-3.267
X4.6234Y-3.3103
X4.6234Y-3.3536
X6.7976Y-4.4018
X6.7976Y-4.4451
X6.7976Y-4.4884
X6.8409Y-4.4018
X6.8409Y-4.4451
X6.8409Y-4.4884
X6.8842Y-4.4018
X6.8842Y-4.4451
X6.8842Y-4.4884
T2
X5.4851Y-3.0012
X5.4851Y-3.0288
X5.5127Y-3.0012
X5.5127Y-3.0288
T3
X4.0748Y-2.2047
X4.0787Y-2.4803
X4.1142Y-5.4921
X4.1142Y-5.7283
X4.2087Y-4.2717
X4.2109Y-3.3654
X4.2126Y-5.0197
X4.2323Y-4.7638
X4.2323Y-5.252
X4.2469Y-3.5754
X4.2513Y-3.327
X4.2588Y-3.5242
X4.2717Y-3.1299
X4.2883Y-3.5242
X4.2913Y-3.7795
X4.3071Y-2.7362
X4.3143Y-3.3329
X4.3265Y-3.2601
X4.3307Y-2.9528
X4.3307Y-3.9173
X4.3307Y-5.7283
X4.3371Y-3.2235
X4.3387Y-3.3015
X4.3425Y-4.4724
X4.3493Y-3.1935
X4.3906Y-3.1593
X4.4036Y-3.4089
X4.4115Y-3.7282
X4.4118Y-5.4268
X4.4458Y-3.5341
X4.4513Y-3.6719
X4.4685Y-4.9606
X4.4714Y-3.2093
X4.4733Y-3.099
X4.4733Y-3.427
X4.4882Y-5.5472
X4.4891Y-3.5341
X4.5079Y-2.2835
X4.5079Y-2.6043
X4.5079Y-2.7756
X4.5079Y-4.6969
X4.5091Y-3.027
X4.5157Y-5.0079
X4.5422Y-3.0372
X4.5472Y-4.9213
X4.5512Y-5.0551
X4.563Y-5.4016
X4.5792Y-3.014
X4.5914Y-3.5538
X4.6063Y-4.3031
X4.6446Y-3.5518
X4.6446Y-3.603
X4.6509Y-3.8215
X4.6958Y-3.5518
X4.7088Y-3.2191
X4.7095Y-3.4829
X4.7165Y-5.1929
X4.7174Y-3.0675
X4.7178Y-3.6857
X4.7328Y-3.8215
X4.7441Y-2.2835
X4.7469Y-3.5518
X4.7516Y-5.4098
X4.7559Y-2.5315
X4.7559Y-5.0154
X4.7559Y-4.9596
X4.7677Y-2.7894
X4.7689Y-5.4984
X4.7926Y-3.8215
X4.7981Y-3.5518
X4.802Y-4.1594
X4.815Y-5.315
X4.8296Y-3.2231
X4.8296Y-3.2585
X4.8296Y-3.292
X4.8307Y-5.0709
X4.8307Y-5.1693
X4.8312Y-3.3278
X4.8316Y-3.3837
X4.8425Y-3.937
X4.8449Y-4.185
X4.8504Y-4.6181
X4.8532Y-2.9809
X4.8571Y-4.9146
X4.8583Y-3.3543
X4.8697Y-5.4465
X4.8711Y-3.7498
X4.8725Y-3.8223
X4.8847Y-2.9494
X4.8858Y-5.374
X4.8898Y-5.2283
X4.8966Y-3.2172
X4.8976Y-5.4921
X4.9014Y-3.4917
X4.9016Y-2.3819
X4.9087Y-3.7811
X4.9182Y-2.9809
X4.9213Y-4.7441
X4.9351Y-4.8299
X4.9359Y-3.1128
X4.9383Y-3.2242
X4.9453Y-3.7811
X4.9567Y-3.4803
X4.9604Y-3.5174
X4.9646Y-3.7165
X4.9685Y-3.3898
X4.9699Y-3.4325
X4.9791Y-3.7811
X4.9795Y-4.7811
X4.9803Y-4.4252
X4.9803Y-4.6811
X4.9816Y-3.1431
X4.9832Y-3.1931
X5.0039Y-2.9606
X5.0118Y-4.2146
X5.0157Y-5.
X5.0303Y-5.0839
X5.0315Y-5.6535
X5.0394Y-5.2362
X5.0496Y-2.5394
X5.0496Y-2.7795
X5.0496Y-3.252
X5.0496Y-3.4882
X5.0504Y-5.1143
X5.072Y-5.137
X5.0827Y-3.9173
X5.0945Y-3.0748
X5.1055Y-4.7199
X5.1091Y-2.8589
X5.1091Y-2.9061
X5.1181Y-5.4331
X5.126Y-3.9173
X5.1299Y-4.2638
X5.1535Y-2.6378
X5.1555Y-5.2815
X5.1693Y-2.4961
X5.1693Y-3.9173
X5.185Y-4.7756
X5.1918Y-3.1148
X5.2126Y-3.9173
X5.2126Y-4.8307
X5.2159Y-4.214
X5.2233Y-3.1148
X5.2323Y-3.7362
X5.2362Y-2.2939
X5.2362Y-5.0197
X5.2391Y-2.8589
X5.2391Y-2.9101
X5.2425Y-2.5961
X5.2441Y-4.4213
X5.2469Y-4.5808
X5.252Y-4.8307
X5.2543Y-2.7697
X5.2559Y-3.9173
X5.2564Y-4.2147
X5.2677Y-5.4567
X5.2686Y-4.5566
X5.2706Y-2.8589
X5.2706Y-2.9101
X5.2706Y-3.1699
X5.2706Y-3.3392
X5.2717Y-3.2087
X5.2717Y-3.2559
X5.2717Y-3.2992
X5.2756Y-5.6102
X5.2913Y-4.8307
X5.2953Y-5.2165
X5.2965Y-4.5426
X5.2992Y-2.5
X5.3075Y-2.6945
X5.315Y-5.3346
X5.3346Y-4.2323
X5.3375Y-2.8038
X5.351Y-4.3904
X5.3543Y-5.0591
X5.3622Y-5.5787
X5.3628Y-4.8264
X5.3651Y-2.8038
X5.3823Y-4.787
X5.3876Y-5.6284
X5.4084Y-3.0597
X5.4099Y-2.9923
X5.4134Y-4.4291
X5.4134Y-5.5938
X5.4162Y-3.2841
X5.4162Y-3.3392
X5.426Y-2.7441
X5.4399Y-3.3116
X5.4438Y-2.792
X5.4438Y-2.8195
X5.4504Y-4.7008
X5.4528Y-5.
X5.4674Y-3.2841
X5.4674Y-3.3392
X5.4724Y-2.2941
X5.4724Y-3.7362
X5.4921Y-4.0945
X5.4921Y-4.4331
X5.495Y-3.4455
X5.495Y-3.4967
X5.5012Y-5.6409
X5.5039Y-5.2756
X5.5225Y-2.8156
X5.5315Y-4.8898
X5.532Y-4.7421
X5.532Y-4.7909
X5.5383Y-3.2605
X5.5462Y-3.4455
X5.5462Y-3.4967
X5.5551Y-5.5591
X5.5591Y-5.689
X5.5717Y-3.2245
X5.5737Y-2.8156
X5.5787Y-4.9213
X5.5906Y-2.2047
X5.5973Y-3.4967
X5.6033Y-5.0763
X5.6123Y-2.7473
X5.6131Y-2.9061
X5.6142Y-2.5984
X5.6142Y-2.6457
X5.626Y-5.4843
X5.6382Y-2.4181
X5.6461Y-5.598
X5.6461Y-5.6543
X5.6535Y-5.0394
X5.6575Y-2.5984
X5.6575Y-2.6457
X5.6643Y-3.2801
X5.6643Y-3.3101
X5.6643Y-3.3392
X5.6654Y-3.9606
X5.6693Y-5.4134
X5.6811Y-5.3031
X5.6843Y-2.4181
X5.6929Y-4.6969
X5.7008Y-4.7795
X5.7047Y-2.2941
X5.7087Y-3.7362
X5.7126Y-5.3071
X5.7154Y-3.4534
X5.7154Y-3.4967
X5.7323Y-4.3386
X5.7402Y-2.7441
X5.7661Y-2.9311
X5.7666Y-3.4534
X5.7666Y-3.4967
X5.7717Y-4.1732
X5.7717Y-4.7795
X5.7717Y-4.9512
X5.7717Y-5.0039
X5.7717Y-5.063
X5.7835Y-5.1142
X5.8031Y-2.9016
X5.811Y-3.0787
X5.8178Y-3.4534
X5.8178Y-3.4967
X5.8465Y-5.6693
X5.8504Y-5.5315
X5.8622Y-4.7835
X5.869Y-3.351
X5.869Y-3.4022
X5.869Y-3.4534
X5.869Y-3.4967
X5.874Y-2.4488
X5.8858Y-5.3425
X5.8926Y-3.2998
X5.9138Y-4.898
X5.9138Y-4.9488
X5.9173Y-2.9173
X5.9202Y-3.351
X5.9202Y-3.4022
X5.9202Y-3.4534
X5.9202Y-3.4967
X5.9409Y-5.0472
X5.9449Y-2.2941
X5.9449Y-3.7362
X5.9646Y-2.9173
X5.9724Y-2.7126
X5.9843Y-3.9921
X6.0118Y-2.9173
X6.0157Y-4.9528
X6.0866Y-4.1339
X6.122Y-3.0906
X6.126Y-2.5394
X6.1378Y-5.2795
X6.1457Y-3.3583
X6.1457Y-3.6575
X6.1732Y-2.8622
X6.1811Y-2.2941
X6.1811Y-3.7362
X6.1811Y-4.5079
X6.185Y-5.626
X6.1969Y-4.2323
X6.252Y-3.2323
X6.2795Y-3.937
X6.2874Y-3.5709
X6.315Y-2.9606
X6.315Y-3.0787
X6.3468Y-5.0431
X6.3472Y-4.8506
X6.3472Y-4.8986
X6.3472Y-5.0884
X6.3472Y-5.136
X6.3472Y-4.9951
X6.3476Y-4.9443
X6.3476Y-5.1813
X6.3677Y-2.5433
X6.3677Y-2.7756
X6.3677Y-3.2559
X6.3677Y-3.4921
X6.437Y-5.5512
X6.4449Y-2.9606
X6.4449Y-3.0669
X6.4449Y-3.8268
X6.4449Y-3.937
X6.4449Y-4.4488
X6.5Y-2.9173
X6.5Y-3.1102
X6.5Y-3.7756
X6.5Y-3.8819
X6.5Y-3.9921
X6.5Y-4.6811
X6.5134Y-4.1026
X6.5134Y-4.1695
X6.5157Y-2.2244
X6.5354Y-5.3071
X6.548Y-4.4428
X6.5551Y-2.9598
X6.5551Y-3.0701
X6.5551Y-3.8276
X6.5618Y-4.4825
X6.5618Y-4.5195
X6.5705Y-4.5538
X6.5748Y-3.3465
X6.5986Y-4.3065
X6.6102Y-2.9173
X6.6102Y-3.0197
X6.6102Y-3.1102
X6.6102Y-3.7756
X6.6102Y-3.8819
X6.6102Y-3.9921
X6.6264Y-4.553
X6.6354Y-4.0892
X6.6575Y-2.9606
X6.6618Y-3.0701
X6.6654Y-3.8268
X6.6685Y-3.9378
X6.6716Y-4.0412
X6.6732Y-2.4409
X6.6937Y-4.6368
X6.7083Y-4.0408
X6.7177Y-4.6758
X6.7407Y-4.5496
X6.7457Y-4.1302
X6.7457Y-4.3152
X6.7488Y-4.0853
X6.7575Y-4.1931
X6.7594Y-4.6853
X6.7717Y-3.5236
X6.785Y-4.1931
X6.7882Y-4.703
X6.8126Y-4.1931
X6.8264Y-4.6884
X6.852Y-4.1892
X6.8531Y-4.7766
X6.8598Y-4.7109
X6.8701Y-3.8189
X6.8868Y-4.1953
X6.887Y-4.8164
X6.9175Y-4.2286
X6.9252Y-5.6614
X6.9349Y-4.6215
X6.9394Y-4.0459
X6.9488Y-2.7165
X6.9504Y-4.5514
X6.9622Y-4.074
X6.9685Y-2.4016
X6.9849Y-4.0985
X7.0035Y-4.1216
X7.0047Y-4.3116
X7.0167Y-4.1481
X7.0472Y-3.0906
X7.0472Y-3.4055
X7.0516Y-4.7365
X7.0516Y-4.7699
X7.0724Y-4.5357
X7.0724Y-4.575
X7.0803Y-4.2246
X7.0803Y-4.2758
X7.0803Y-4.327
X7.0803Y-4.3782
X7.0837Y-4.4315
X7.0961Y-4.7798
X7.1118Y-4.016
X7.1315Y-4.3782
X7.1457Y-5.4449
X7.1472Y-3.9766
X7.1827Y-4.016
X7.2024Y-4.5672
X7.2047Y-2.8543
X7.2047Y-3.7205
X7.2185Y-4.2992
X7.2244Y-2.5
X7.2366Y-4.4654
X7.2411Y-4.511
X7.2614Y-4.6144
X7.2617Y-4.4883
X7.2778Y-4.1529
X7.3086Y-4.0423
X7.3086Y-4.0772
X7.3086Y-4.1144
X7.3268Y-5.4724
X7.352Y-4.1538
X7.352Y-4.2286
X7.352Y-4.2876
X7.352Y-4.3743
X7.3622Y-4.4764
X7.4606Y-2.6772
X7.4606Y-5.0748
X7.4803Y-3.5433
X7.5197Y-3.189
X7.5354Y-4.3661
X7.5591Y-5.689
X7.5906Y-5.2717
X7.5984Y-2.2244
X7.6142Y-4.7008
X7.6181Y-3.9173
T4
X4.3858Y-5.1535
X4.3858Y-5.2323
X4.4646Y-5.1535
X4.4646Y-5.2323
X4.5433Y-5.1535
X4.5433Y-5.2323
X6.8307Y-5.315
X6.8307Y-5.3937
X6.9094Y-5.315
X6.9094Y-5.3937
X6.9882Y-5.315
X6.9882Y-5.3937
X7.3338Y-5.2297
X7.3338Y-5.3084
X7.3338Y-5.3872
X7.4125Y-5.2297
X7.4125Y-5.3084
X7.4125Y-5.3872
T0
M30
